# xmcd CD database file
#
# Track frame offsets:
#	150
#	34302
#	53452
#	67050
#	80487
#	95332
#	122879
#	144938
#
# Disc length: 2155 seconds
#
# Revision: 0
# Processed by: cddbd v1.5PL3 Copyright (c) Steve Scherf et al.
# Submitted via: CDex 1.51
#
DISCID=68086908
DTITLE=Captain Stringbeans - Dead Heart Days - Disc 2/2
DYEAR=1998
DGENRE=Blues
TTITLE0=Party in the Car
TTITLE1=A Hot Ride after Galesburg
TTITLE2=Crossed My Heart and Hoped to Die
TTITLE3=Hot Bacon
TTITLE4=Ghost Train
TTITLE5=Round and Round
TTITLE6=Dead Heart Days
TTITLE7=Dakota's Song
EXTD=YEAR: 1998
EXTT0=
EXTT1=
EXTT2=
EXTT3=
EXTT4=
EXTT5=
EXTT6=
EXTT7=
PLAYORDER=
